Coordinates
version=1
nRows=17
nColumns=24
inDegrees=yes

Units are S.I. units (second, meters, Newtons, ...)
Angles are in degrees.

endheader
time	pelvis_tilt	pelvis_list	pelvis_rotation	pelvis_tx	pelvis_ty	pelvis_tz	hip_flexion_r	hip_adduction_r	hip_rotation_r	knee_angle_r	ankle_angle_r	subtalar_angle_r	mtp_angle_r	hip_flexion_l	hip_adduction_l	hip_rotation_l	knee_angle_l	ankle_angle_l	subtalar_angle_l	mtp_angle_l	lumbar_extension	lumbar_bending	lumbar_rotation
     19.09000000	     -3.45723643	     -3.86729294	   -276.10004295	     -0.00991335	      0.07991157	     -1.93171972	    -16.15373861	     -4.75024983	    -10.77772090	    -17.04041170	     10.10841811	      0.08149851	      8.92439329	     31.74515492	     -0.99559485	    -15.44572166	    -18.39587324	     -7.26782975	     -0.50158758	      6.10751817	     -5.95911749	     -7.54931587	      7.81256498
     19.09500000	     -3.69145725	     -3.88322551	   -276.03868552	     -0.01110353	      0.07957371	     -1.93307071	    -16.07865474	     -5.22809004	    -11.06510549	    -17.86310771	      9.19602822	      0.40726183	     11.00638717	     31.80884773	     -0.73543931	    -15.22840153	    -19.14666024	     -7.17196832	     -1.28558444	      3.46923954	     -5.77890274	     -7.73239571	      7.60599620
     19.10000000	     -3.88459784	     -3.89256816	   -275.97398235	     -0.01223383	      0.07937447	     -1.93439958	    -15.96010209	     -5.63310294	    -11.14885468	    -18.74788691	      8.26418330	      0.38707563	     12.00392599	     31.87437978	     -0.52843019	    -15.06982182	    -19.93305288	     -7.32491394	     -1.75485411	      2.29462953	     -5.61359667	     -7.88312040	      7.42241997
     19.10500000	     -4.03642751	     -3.92094803	   -275.88655657	     -0.01342169	      0.07922847	     -1.93566410	    -15.75132844	     -6.00756436	    -11.27313974	    -19.73266780	      7.47664445	      0.38104177	     12.06065654	     31.98260419	     -0.34416122	    -14.81143669	    -20.75173366	     -7.64586365	     -2.01659192	      2.08465854	     -5.44672695	     -7.97905370	      7.20413213
     19.11000000	     -4.20332557	     -3.92670443	   -275.77441056	     -0.01470320	      0.07923039	     -1.93692424	    -15.51045492	     -6.42072666	    -11.53610042	    -20.80372955	      6.25424177	      0.45329822	     14.25993927	     32.03489509	     -0.08025132	    -14.48207153	    -21.50003897	     -7.71457194	     -2.42780090	      0.66277462	     -5.30696196	     -8.10335425	      7.00718255
     19.11500000	     -4.32560919	     -3.92573291	   -275.61103025	     -0.01604422	      0.07929006	     -1.93819052	    -15.23688499	     -6.78997253	    -11.84134611	    -21.93168647	      4.95280853	      0.55335782	     15.77776519	     32.07879436	      0.18997771	    -14.10641956	    -22.26435355	     -7.75464733	     -2.71983751	      0.65218419	     -5.18585456	     -8.15808267	      6.69968828
     19.12000000	     -4.39874424	     -3.91988359	   -275.48733772	     -0.01726756	      0.07948764	     -1.93919266	    -14.86110576	     -7.10619128	    -12.02789140	    -23.15896022	      3.57159450	      0.40205965	     16.95889990	     32.11173988	      0.38776989	    -13.82701589	    -23.04321342	     -7.70695482	     -2.97410076	      0.96208657	     -5.10097738	     -8.18133524	      6.46696859
     19.12500000	     -4.46282885	     -3.88952357	   -275.28555029	     -0.01862680	      0.07978014	     -1.94034933	    -14.50925109	     -7.41733690	    -12.33701373	    -24.39288410	      2.26768631	      0.28200232	     16.93807210	     32.05997853	      0.65271807	    -13.46096160	    -23.78974640	     -7.38515200	     -3.14858591	      1.07940265	     -5.03243382	     -8.18350288	      6.15210936
     19.13000000	     -4.50771369	     -3.87230206	   -275.09920823	     -0.01991849	      0.08016495	     -1.94142319	    -14.04986926	     -7.71892636	    -12.59481854	    -25.73409971	      0.44046278	      0.12915178	     19.79542309	     31.98153206	      0.87162226	    -13.25302398	    -24.54179921	     -6.98867257	     -3.21740018	      1.41418931	     -4.95112326	     -8.18093145	      5.89324666
     19.13500000	     -4.54909853	     -3.79991564	   -274.87707366	     -0.02122485	      0.08071015	     -1.94269128	    -13.67386179	     -8.00521686	    -12.88758653	    -27.01486019	     -1.11546279	     -0.28027637	     19.95539347	     31.76673364	      1.10107612	    -13.13752210	    -25.24468661	     -6.31092494	     -3.18237602	      1.60570464	     -4.91383914	     -8.16580235	      5.51639747
     19.14000000	     -4.49843650	     -3.74333639	   -274.72801430	     -0.02248039	      0.08132982	     -1.94329875	    -13.07692329	     -8.26387378	    -13.15341096	    -28.52589592	     -3.05765280	     -0.49853072	     22.02555724	     31.60305734	      1.17269924	    -13.16923096	    -25.95722937	     -5.78919142	     -3.03943866	      2.12491137	     -4.92948845	     -8.06769810	      5.32113651
     19.14500000	     -4.51247403	     -3.61554430	   -274.47203337	     -0.02379949	      0.08206681	     -1.94418823	    -12.61188925	     -8.54167622	    -13.42067274	    -29.97228815	     -4.79148113	     -1.05119144	     21.95516428	     31.27185798	      1.39348641	    -13.11170800	    -26.50624617	     -5.14747434	     -2.93107430	      2.31600504	     -4.99652162	     -8.02226484	      4.90260051
     19.15000000	     -4.50059343	     -3.50013198	   -274.22872795	     -0.02513194	      0.08290571	     -1.94501428	    -12.06490577	     -8.85516528	    -13.75234876	    -31.50038205	     -6.48535173	     -1.54373179	     22.02293779	     30.90958570	      1.58622921	    -13.06057984	    -26.97064807	     -4.59119087	     -2.74603129	      2.51536188	     -5.04625227	     -7.95307879	      4.54431594
     19.15500000	     -4.51652427	     -3.35434364	   -273.94573664	     -0.02657211	      0.08378743	     -1.94582909	    -11.52758731	     -9.20584190	    -14.05828850	    -33.06824842	     -8.25317483	     -2.05525113	     21.93871420	     30.46353120	      1.85844958	    -12.94354335	    -27.31165085	     -4.05845401	     -2.76581348	      2.75963376	     -5.14107356	     -7.90403041	      4.15384139
     19.16000000	     -4.52927438	     -3.23577832	   -273.67563282	     -0.02802973	      0.08475186	     -1.94645518	    -10.89495542	     -9.53647267	    -14.28975327	    -34.72250384	     -9.97430131	     -2.74580870	     21.72281230	     29.98072159	      2.12870726	    -12.83180253	    -27.50900145	     -3.58851907	     -2.65415199	      3.00417642	     -5.21288988	     -7.85040355	      3.81725552
     19.16500000	     -4.54023707	     -3.12387890	   -273.43592916	     -0.02934648	      0.08572629	     -1.94703327	    -10.20380639	     -9.88527404	    -14.50474960	    -36.41859356	    -11.56860549	     -3.62382927	     20.93865425	     29.47495568	      2.36268357	    -12.77970152	    -27.66485308	     -3.22383802	     -2.45053520	      4.13472663	     -5.29178281	     -7.80178570	      3.46070986
     19.17000000	     -4.56213588	     -3.05037356	   -273.19910338	     -0.03088714	      0.08671136	     -1.94764011	     -9.44202421	    -10.26083819	    -14.68319391	    -38.13350724	    -13.29919705	     -4.52297926	     20.48000478	     28.95188115	      2.63561257	    -12.70687571	    -27.71795987	     -2.75388321	     -2.41947415	      4.28145540	     -5.33172372	     -7.72827846	      3.10479941
